<mxfile host="app.diagrams.net" modified="2021-02-17T11:58:25.275Z" agent="5.0 (Macintosh; Intel Mac OS X 10_13_6) AppleWebKit/537.36 (KHTML, like Gecko) Chrome/87.0.4280.141 Safari/537.36" etag="YccnDCwfOumJ84RY4GHH" version="13.10.4" type="github">
  <diagram id="C5RBs43oDa-KdzZeNtuy" name="Page-1">
    <mxGraphModel dx="2955" dy="1240" grid="1" gridSize="10" guides="1" tooltips="1" connect="1" arrows="1" fold="1" page="1" pageScale="1" pageWidth="583" pageHeight="827" math="0" shadow="0">
      <root>
        <mxCell id="WIyWlLk6GJQsqaUBKTNV-0" />
        <mxCell id="WIyWlLk6GJQsqaUBKTNV-1" parent="WIyWlLk6GJQsqaUBKTNV-0" />
        <mxCell id="ZU6P_-DPb11zaJ6Cw-Iy-6" value="Use" style="endArrow=open;endSize=12;dashed=1;html=1;exitX=0;exitY=0.25;exitDx=0;exitDy=0;exitPerimeter=0;entryX=1.004;entryY=0.11;entryDx=0;entryDy=0;entryPerimeter=0;" edge="1" parent="WIyWlLk6GJQsqaUBKTNV-1" source="ZU6P_-DPb11zaJ6Cw-Iy-23" target="ZU6P_-DPb11zaJ6Cw-Iy-30">
          <mxGeometry width="160" relative="1" as="geometry">
            <mxPoint x="339.9999999999999" y="894" as="sourcePoint" />
            <mxPoint x="302" y="842" as="targetPoint" />
          </mxGeometry>
        </mxCell>
        <mxCell id="ZU6P_-DPb11zaJ6Cw-Iy-21" value="Handler" style="swimlane;fontStyle=1;align=center;verticalAlign=top;childLayout=stackLayout;horizontal=1;startSize=26;horizontalStack=0;resizeParent=1;resizeParentMax=0;resizeLast=0;collapsible=1;marginBottom=0;" vertex="1" parent="WIyWlLk6GJQsqaUBKTNV-1">
          <mxGeometry x="400" y="764" width="200" height="138" as="geometry" />
        </mxCell>
        <mxCell id="ZU6P_-DPb11zaJ6Cw-Iy-22" value="+ mQueue: MessageQueue" style="text;strokeColor=none;fillColor=none;align=left;verticalAlign=top;spacingLeft=4;spacingRight=4;overflow=hidden;rotatable=0;points=[[0,0.5],[1,0.5]];portConstraint=eastwest;" vertex="1" parent="ZU6P_-DPb11zaJ6Cw-Iy-21">
          <mxGeometry y="26" width="200" height="26" as="geometry" />
        </mxCell>
        <mxCell id="ZU6P_-DPb11zaJ6Cw-Iy-25" value="+ mLooper: Looper" style="text;strokeColor=none;fillColor=none;align=left;verticalAlign=top;spacingLeft=4;spacingRight=4;overflow=hidden;rotatable=0;points=[[0,0.5],[1,0.5]];portConstraint=eastwest;" vertex="1" parent="ZU6P_-DPb11zaJ6Cw-Iy-21">
          <mxGeometry y="52" width="200" height="26" as="geometry" />
        </mxCell>
        <mxCell id="ZU6P_-DPb11zaJ6Cw-Iy-23" value="" style="line;strokeWidth=1;fillColor=none;align=left;verticalAlign=middle;spacingTop=-1;spacingLeft=3;spacingRight=3;rotatable=0;labelPosition=right;points=[];portConstraint=eastwest;" vertex="1" parent="ZU6P_-DPb11zaJ6Cw-Iy-21">
          <mxGeometry y="78" width="200" height="8" as="geometry" />
        </mxCell>
        <mxCell id="ZU6P_-DPb11zaJ6Cw-Iy-24" value="+ sendMessage(Message): boolean" style="text;strokeColor=none;fillColor=none;align=left;verticalAlign=top;spacingLeft=4;spacingRight=4;overflow=hidden;rotatable=0;points=[[0,0.5],[1,0.5]];portConstraint=eastwest;" vertex="1" parent="ZU6P_-DPb11zaJ6Cw-Iy-21">
          <mxGeometry y="86" width="200" height="26" as="geometry" />
        </mxCell>
        <mxCell id="ZU6P_-DPb11zaJ6Cw-Iy-27" value="+ handleMessage(Message): void" style="text;strokeColor=none;fillColor=none;align=left;verticalAlign=top;spacingLeft=4;spacingRight=4;overflow=hidden;rotatable=0;points=[[0,0.5],[1,0.5]];portConstraint=eastwest;" vertex="1" parent="ZU6P_-DPb11zaJ6Cw-Iy-21">
          <mxGeometry y="112" width="200" height="26" as="geometry" />
        </mxCell>
        <mxCell id="ZU6P_-DPb11zaJ6Cw-Iy-28" value="Looper" style="swimlane;fontStyle=1;align=center;verticalAlign=top;childLayout=stackLayout;horizontal=1;startSize=26;horizontalStack=0;resizeParent=1;resizeParentMax=0;resizeLast=0;collapsible=1;marginBottom=0;" vertex="1" parent="WIyWlLk6GJQsqaUBKTNV-1">
          <mxGeometry x="100" y="764" width="200" height="164" as="geometry" />
        </mxCell>
        <mxCell id="ZU6P_-DPb11zaJ6Cw-Iy-29" value="+ sThreadLocal: ThreadLocal&lt;Looper&gt;" style="text;strokeColor=none;fillColor=none;align=left;verticalAlign=top;spacingLeft=4;spacingRight=4;overflow=hidden;rotatable=0;points=[[0,0.5],[1,0.5]];portConstraint=eastwest;" vertex="1" parent="ZU6P_-DPb11zaJ6Cw-Iy-28">
          <mxGeometry y="26" width="200" height="26" as="geometry" />
        </mxCell>
        <mxCell id="ZU6P_-DPb11zaJ6Cw-Iy-36" value="+ mQueue: MessageQueue" style="text;strokeColor=none;fillColor=none;align=left;verticalAlign=top;spacingLeft=4;spacingRight=4;overflow=hidden;rotatable=0;points=[[0,0.5],[1,0.5]];portConstraint=eastwest;" vertex="1" parent="ZU6P_-DPb11zaJ6Cw-Iy-28">
          <mxGeometry y="52" width="200" height="26" as="geometry" />
        </mxCell>
        <mxCell id="ZU6P_-DPb11zaJ6Cw-Iy-30" value="+ mThread: Thread" style="text;strokeColor=none;fillColor=none;align=left;verticalAlign=top;spacingLeft=4;spacingRight=4;overflow=hidden;rotatable=0;points=[[0,0.5],[1,0.5]];portConstraint=eastwest;" vertex="1" parent="ZU6P_-DPb11zaJ6Cw-Iy-28">
          <mxGeometry y="78" width="200" height="26" as="geometry" />
        </mxCell>
        <mxCell id="ZU6P_-DPb11zaJ6Cw-Iy-31" value="" style="line;strokeWidth=1;fillColor=none;align=left;verticalAlign=middle;spacingTop=-1;spacingLeft=3;spacingRight=3;rotatable=0;labelPosition=right;points=[];portConstraint=eastwest;" vertex="1" parent="ZU6P_-DPb11zaJ6Cw-Iy-28">
          <mxGeometry y="104" width="200" height="8" as="geometry" />
        </mxCell>
        <mxCell id="ZU6P_-DPb11zaJ6Cw-Iy-32" value="+ prepare(): void" style="text;strokeColor=none;fillColor=none;align=left;verticalAlign=top;spacingLeft=4;spacingRight=4;overflow=hidden;rotatable=0;points=[[0,0.5],[1,0.5]];portConstraint=eastwest;" vertex="1" parent="ZU6P_-DPb11zaJ6Cw-Iy-28">
          <mxGeometry y="112" width="200" height="26" as="geometry" />
        </mxCell>
        <mxCell id="ZU6P_-DPb11zaJ6Cw-Iy-33" value="+ loop(): void" style="text;strokeColor=none;fillColor=none;align=left;verticalAlign=top;spacingLeft=4;spacingRight=4;overflow=hidden;rotatable=0;points=[[0,0.5],[1,0.5]];portConstraint=eastwest;" vertex="1" parent="ZU6P_-DPb11zaJ6Cw-Iy-28">
          <mxGeometry y="138" width="200" height="26" as="geometry" />
        </mxCell>
        <mxCell id="ZU6P_-DPb11zaJ6Cw-Iy-37" value="MessageQueue" style="swimlane;fontStyle=1;align=center;verticalAlign=top;childLayout=stackLayout;horizontal=1;startSize=26;horizontalStack=0;resizeParent=1;resizeParentMax=0;resizeLast=0;collapsible=1;marginBottom=0;" vertex="1" parent="WIyWlLk6GJQsqaUBKTNV-1">
          <mxGeometry x="100" y="504" width="200" height="112" as="geometry" />
        </mxCell>
        <mxCell id="ZU6P_-DPb11zaJ6Cw-Iy-39" value="+ mMessages: Message" style="text;strokeColor=none;fillColor=none;align=left;verticalAlign=top;spacingLeft=4;spacingRight=4;overflow=hidden;rotatable=0;points=[[0,0.5],[1,0.5]];portConstraint=eastwest;" vertex="1" parent="ZU6P_-DPb11zaJ6Cw-Iy-37">
          <mxGeometry y="26" width="200" height="26" as="geometry" />
        </mxCell>
        <mxCell id="ZU6P_-DPb11zaJ6Cw-Iy-41" value="" style="line;strokeWidth=1;fillColor=none;align=left;verticalAlign=middle;spacingTop=-1;spacingLeft=3;spacingRight=3;rotatable=0;labelPosition=right;points=[];portConstraint=eastwest;" vertex="1" parent="ZU6P_-DPb11zaJ6Cw-Iy-37">
          <mxGeometry y="52" width="200" height="8" as="geometry" />
        </mxCell>
        <mxCell id="ZU6P_-DPb11zaJ6Cw-Iy-42" value="+ enqueueMessage(Message,long): boolean" style="text;strokeColor=none;fillColor=none;align=left;verticalAlign=top;spacingLeft=4;spacingRight=4;overflow=hidden;rotatable=0;points=[[0,0.5],[1,0.5]];portConstraint=eastwest;" vertex="1" parent="ZU6P_-DPb11zaJ6Cw-Iy-37">
          <mxGeometry y="60" width="200" height="26" as="geometry" />
        </mxCell>
        <mxCell id="ZU6P_-DPb11zaJ6Cw-Iy-43" value="+ next(): Message" style="text;strokeColor=none;fillColor=none;align=left;verticalAlign=top;spacingLeft=4;spacingRight=4;overflow=hidden;rotatable=0;points=[[0,0.5],[1,0.5]];portConstraint=eastwest;" vertex="1" parent="ZU6P_-DPb11zaJ6Cw-Iy-37">
          <mxGeometry y="86" width="200" height="26" as="geometry" />
        </mxCell>
        <mxCell id="ZU6P_-DPb11zaJ6Cw-Iy-45" value="Message" style="swimlane;fontStyle=1;align=center;verticalAlign=top;childLayout=stackLayout;horizontal=1;startSize=26;horizontalStack=0;resizeParent=1;resizeParentMax=0;resizeLast=0;collapsible=1;marginBottom=0;" vertex="1" parent="WIyWlLk6GJQsqaUBKTNV-1">
          <mxGeometry x="100" y="210" width="200" height="164" as="geometry" />
        </mxCell>
        <mxCell id="ZU6P_-DPb11zaJ6Cw-Iy-46" value="+ target: Handler" style="text;strokeColor=none;fillColor=none;align=left;verticalAlign=top;spacingLeft=4;spacingRight=4;overflow=hidden;rotatable=0;points=[[0,0.5],[1,0.5]];portConstraint=eastwest;" vertex="1" parent="ZU6P_-DPb11zaJ6Cw-Iy-45">
          <mxGeometry y="26" width="200" height="26" as="geometry" />
        </mxCell>
        <mxCell id="ZU6P_-DPb11zaJ6Cw-Iy-47" value="+ next: Message" style="text;strokeColor=none;fillColor=none;align=left;verticalAlign=top;spacingLeft=4;spacingRight=4;overflow=hidden;rotatable=0;points=[[0,0.5],[1,0.5]];portConstraint=eastwest;" vertex="1" parent="ZU6P_-DPb11zaJ6Cw-Iy-45">
          <mxGeometry y="52" width="200" height="26" as="geometry" />
        </mxCell>
        <mxCell id="ZU6P_-DPb11zaJ6Cw-Iy-48" value="+ sPool: Message" style="text;strokeColor=none;fillColor=none;align=left;verticalAlign=top;spacingLeft=4;spacingRight=4;overflow=hidden;rotatable=0;points=[[0,0.5],[1,0.5]];portConstraint=eastwest;" vertex="1" parent="ZU6P_-DPb11zaJ6Cw-Iy-45">
          <mxGeometry y="78" width="200" height="26" as="geometry" />
        </mxCell>
        <mxCell id="ZU6P_-DPb11zaJ6Cw-Iy-49" value="" style="line;strokeWidth=1;fillColor=none;align=left;verticalAlign=middle;spacingTop=-1;spacingLeft=3;spacingRight=3;rotatable=0;labelPosition=right;points=[];portConstraint=eastwest;" vertex="1" parent="ZU6P_-DPb11zaJ6Cw-Iy-45">
          <mxGeometry y="104" width="200" height="8" as="geometry" />
        </mxCell>
        <mxCell id="ZU6P_-DPb11zaJ6Cw-Iy-50" value="+ enqueueMessage(Message,long): boolean" style="text;strokeColor=none;fillColor=none;align=left;verticalAlign=top;spacingLeft=4;spacingRight=4;overflow=hidden;rotatable=0;points=[[0,0.5],[1,0.5]];portConstraint=eastwest;" vertex="1" parent="ZU6P_-DPb11zaJ6Cw-Iy-45">
          <mxGeometry y="112" width="200" height="26" as="geometry" />
        </mxCell>
        <mxCell id="ZU6P_-DPb11zaJ6Cw-Iy-51" value="+ next(): Message" style="text;strokeColor=none;fillColor=none;align=left;verticalAlign=top;spacingLeft=4;spacingRight=4;overflow=hidden;rotatable=0;points=[[0,0.5],[1,0.5]];portConstraint=eastwest;" vertex="1" parent="ZU6P_-DPb11zaJ6Cw-Iy-45">
          <mxGeometry y="138" width="200" height="26" as="geometry" />
        </mxCell>
        <mxCell id="ZU6P_-DPb11zaJ6Cw-Iy-53" value="Use" style="endArrow=open;endSize=12;dashed=1;html=1;exitX=0.5;exitY=0;exitDx=0;exitDy=0;entryX=1.01;entryY=0.22;entryDx=0;entryDy=0;entryPerimeter=0;" edge="1" parent="WIyWlLk6GJQsqaUBKTNV-1" source="ZU6P_-DPb11zaJ6Cw-Iy-21">
          <mxGeometry width="160" relative="1" as="geometry">
            <mxPoint x="479.20000000000005" y="724" as="sourcePoint" />
            <mxPoint x="302" y="561.72" as="targetPoint" />
            <Array as="points">
              <mxPoint x="500" y="562" />
            </Array>
          </mxGeometry>
        </mxCell>
        <mxCell id="ZU6P_-DPb11zaJ6Cw-Iy-55" value="" style="endArrow=diamondThin;endFill=1;endSize=24;html=1;exitX=0.477;exitY=1.046;exitDx=0;exitDy=0;exitPerimeter=0;entryX=0.475;entryY=0.004;entryDx=0;entryDy=0;entryPerimeter=0;" edge="1" parent="WIyWlLk6GJQsqaUBKTNV-1" source="ZU6P_-DPb11zaJ6Cw-Iy-51" target="ZU6P_-DPb11zaJ6Cw-Iy-37">
          <mxGeometry width="160" relative="1" as="geometry">
            <mxPoint x="130" y="454" as="sourcePoint" />
            <mxPoint x="290" y="454" as="targetPoint" />
          </mxGeometry>
        </mxCell>
        <mxCell id="ZU6P_-DPb11zaJ6Cw-Iy-56" value="" style="endArrow=diamondThin;endFill=1;endSize=24;html=1;exitX=0.5;exitY=1;exitDx=0;exitDy=0;" edge="1" parent="WIyWlLk6GJQsqaUBKTNV-1" source="ZU6P_-DPb11zaJ6Cw-Iy-37">
          <mxGeometry width="160" relative="1" as="geometry">
            <mxPoint x="199.9000000000001" y="667.9960000000001" as="sourcePoint" />
            <mxPoint x="199.5" y="764" as="targetPoint" />
          </mxGeometry>
        </mxCell>
        <mxCell id="ZU6P_-DPb11zaJ6Cw-Iy-58" style="edgeStyle=orthogonalEdgeStyle;rounded=0;orthogonalLoop=1;jettySize=auto;html=1;exitX=0;exitY=0.5;exitDx=0;exitDy=0;exitPerimeter=0;entryX=0.995;entryY=0.769;entryDx=0;entryDy=0;entryPerimeter=0;" edge="1" parent="WIyWlLk6GJQsqaUBKTNV-1" source="ZU6P_-DPb11zaJ6Cw-Iy-57">
          <mxGeometry relative="1" as="geometry">
            <mxPoint x="310" y="281.994" as="targetPoint" />
          </mxGeometry>
        </mxCell>
        <mxCell id="ZU6P_-DPb11zaJ6Cw-Iy-57" value="Message中持有一个Handler类型的target对象，用来处理Message消息，可以区分出该message是哪个Handler对象发送的；同时Message类型的next对象用来组织Message为单链表；Message类型的sPool对象则是一个消息缓存池，使用头插法的单链表组织，可以回收Message，当下次使用Message时，则不需要重新创建Message了" style="shape=note2;boundedLbl=1;whiteSpace=wrap;html=1;size=11;verticalAlign=top;align=left;" vertex="1" parent="WIyWlLk6GJQsqaUBKTNV-1">
          <mxGeometry x="391" y="210" width="250" height="144" as="geometry" />
        </mxCell>
        <mxCell id="ZU6P_-DPb11zaJ6Cw-Iy-59" value="MessageQueue中有Message对象，用来组织Message，其中使用单链表来进行组织，方便入队和出队（符合Handler消息机制），核心就是入队和出队的两个方法，这也是Handler的核心" style="shape=note2;boundedLbl=1;whiteSpace=wrap;html=1;size=11;verticalAlign=top;align=left;" vertex="1" parent="WIyWlLk6GJQsqaUBKTNV-1">
          <mxGeometry x="-260" y="488" width="250" height="144" as="geometry" />
        </mxCell>
        <mxCell id="ZU6P_-DPb11zaJ6Cw-Iy-63" style="edgeStyle=orthogonalEdgeStyle;rounded=0;orthogonalLoop=1;jettySize=auto;html=1;exitX=0;exitY=0;exitDx=250;exitDy=77.5;exitPerimeter=0;" edge="1" parent="WIyWlLk6GJQsqaUBKTNV-1" source="ZU6P_-DPb11zaJ6Cw-Iy-59">
          <mxGeometry relative="1" as="geometry">
            <mxPoint x="401" y="292" as="sourcePoint" />
            <mxPoint x="90" y="566" as="targetPoint" />
          </mxGeometry>
        </mxCell>
        <mxCell id="ZU6P_-DPb11zaJ6Cw-Iy-64" value="Looper是用来进行循环遍历MessageQueue的，如果要想使用Handler，就需要在Thread的中创建一个Looper，每个Thread最多只能有一个Looper，而且每个Thread都有自己的Looper" style="shape=note2;boundedLbl=1;whiteSpace=wrap;html=1;size=11;verticalAlign=top;align=left;" vertex="1" parent="WIyWlLk6GJQsqaUBKTNV-1">
          <mxGeometry x="-260" y="784" width="250" height="144" as="geometry" />
        </mxCell>
        <mxCell id="ZU6P_-DPb11zaJ6Cw-Iy-65" style="edgeStyle=orthogonalEdgeStyle;rounded=0;orthogonalLoop=1;jettySize=auto;html=1;exitX=0;exitY=0;exitDx=250;exitDy=77.5;exitPerimeter=0;" edge="1" parent="WIyWlLk6GJQsqaUBKTNV-1" source="ZU6P_-DPb11zaJ6Cw-Iy-64">
          <mxGeometry relative="1" as="geometry">
            <mxPoint x="401" y="588" as="sourcePoint" />
            <mxPoint x="90" y="862" as="targetPoint" />
          </mxGeometry>
        </mxCell>
        <mxCell id="ZU6P_-DPb11zaJ6Cw-Iy-66" value="Handler是用来发送和处理消息的" style="shape=note2;boundedLbl=1;whiteSpace=wrap;html=1;size=11;verticalAlign=top;align=left;" vertex="1" parent="WIyWlLk6GJQsqaUBKTNV-1">
          <mxGeometry x="380" y="974" width="250" height="60" as="geometry" />
        </mxCell>
        <mxCell id="ZU6P_-DPb11zaJ6Cw-Iy-67" style="edgeStyle=orthogonalEdgeStyle;rounded=0;orthogonalLoop=1;jettySize=auto;html=1;exitX=0;exitY=0;exitDx=119.5;exitDy=0;exitPerimeter=0;entryX=0.5;entryY=1.077;entryDx=0;entryDy=0;entryPerimeter=0;" edge="1" parent="WIyWlLk6GJQsqaUBKTNV-1" source="ZU6P_-DPb11zaJ6Cw-Iy-66">
          <mxGeometry relative="1" as="geometry">
            <mxPoint x="1041" y="778" as="sourcePoint" />
            <mxPoint x="500" y="914.002" as="targetPoint" />
          </mxGeometry>
        </mxCell>
      </root>
    </mxGraphModel>
  </diagram>
</mxfile>
